<?xml version="1.0" encoding="UTF-8"?>
<!DOCTYPE svg PUBLIC "-//W3C//DTD SVG 1.1//EN" "http://www.w3.org/Graphics/SVG/1.1/DTD/svg11.dtd">
<!-- Creator: CorelDRAW 2018 (64 Bit Versão de avaliação) -->
<svg xmlns="http://www.w3.org/2000/svg" xml:space="preserve" width="212mm" height="124mm" version="1.1" style="shape-rendering:geometricPrecision; text-rendering:geometricPrecision; image-rendering:optimizeQuality; fill-rule:evenodd; clip-rule:evenodd"
viewBox="0 0 21200 12400"
 xmlns:xlink="http://www.w3.org/1999/xlink">
 <defs>
  <style type="text/css">
   <![CDATA[
    .fil0 {fill:#D63785}
   ]]>
  </style>
 </defs>
 <g id="Camada_x0020_1">
  <metadata id="CorelCorpID_0Corel-Layer"/>
  <g id="clock.svg">
   <g>
    <g>
     <path class="fil0" d="M10599.92 931.62c-2909.57,0 -5268.3,2358.8 -5268.3,5268.3 0,2909.49 2358.73,5268.46 5268.3,5268.46 2909.56,0 5268.46,-2358.98 5268.46,-5268.46 0,-2909.49 -2358.9,-5268.3 -5268.46,-5268.3zm2277.62 6270.32l-2233.55 0c-7.55,0 -14.57,-1.82 -22.06,-2.1 -7.48,0.34 -14.47,2.1 -22.06,2.1 -201.22,0 -364.37,-163.15 -364.37,-364.36l0.01 -3719.58c0,-201.22 163.15,-364.37 364.37,-364.37 201.22,0 364.37,163.15 364.37,364.37l0 3355.21 1913.15 0c201.22,0 364.37,163.15 364.37,364.37 0,201.21 -163.01,364.36 -364.23,364.36z"/>
    </g>
   </g>
   <g>
   </g>
   <g>
   </g>
   <g>
   </g>
   <g>
   </g>
   <g>
   </g>
   <g>
   </g>
   <g>
   </g>
   <g>
   </g>
   <g>
   </g>
   <g>
   </g>
   <g>
   </g>
   <g>
   </g>
   <g>
   </g>
   <g>
   </g>
   <g>
   </g>
  </g>
 </g>
</svg>
