<?xml version="1.0" encoding="UTF-8"?>
<!DOCTYPE svg PUBLIC "-//W3C//DTD SVG 1.1//EN" "http://www.w3.org/Graphics/SVG/1.1/DTD/svg11.dtd">
<!-- Creator: CorelDRAW 2018 (64 Bit Versão de avaliação) -->
<svg xmlns="http://www.w3.org/2000/svg" xml:space="preserve" width="212mm" height="124mm" version="1.1" style="shape-rendering:geometricPrecision; text-rendering:geometricPrecision; image-rendering:optimizeQuality; fill-rule:evenodd; clip-rule:evenodd"
viewBox="0 0 21200 12400"
 xmlns:xlink="http://www.w3.org/1999/xlink">
 <defs>
  <style type="text/css">
   <![CDATA[
    .fil0 {fill:#D63785}
   ]]>
  </style>
 </defs>
 <g id="Camada_x0020_1">
  <metadata id="CorelCorpID_0Corel-Layer"/>
  <g id="place.svg">
   <g>
    <path class="fil0" d="M10599.8 1029.4c-2099.08,0 -3807.04,1707.92 -3807.04,3807.24 0,547.6 112.08,1070.4 332.96,1554.04 951.88,2082.92 2776.84,4282 3313.64,4906.32 40.2,46.68 98.84,73.56 160.56,73.56 61.72,0 120.32,-26.88 160.56,-73.56 536.56,-624.2 2361.56,-2823.2 3313.76,-4906.32 221,-483.64 332.96,-1006.48 332.96,-1554.04 -0.24,-2099.32 -1708.2,-3807.24 -3807.4,-3807.24zm0 5784.72c-1090.4,0 -1977.6,-887.2 -1977.6,-1977.6 0,-1090.52 887.2,-1977.72 1977.6,-1977.72 1090.4,0 1977.6,887.2 1977.6,1977.72 0.12,1090.4 -887.08,1977.6 -1977.6,1977.6z"/>
   </g>
   <g>
   </g>
   <g>
   </g>
   <g>
   </g>
   <g>
   </g>
   <g>
   </g>
   <g>
   </g>
   <g>
   </g>
   <g>
   </g>
   <g>
   </g>
   <g>
   </g>
   <g>
   </g>
   <g>
   </g>
   <g>
   </g>
   <g>
   </g>
   <g>
   </g>
  </g>
 </g>
</svg>
